<svg width="23" height="24" viewBox="0 0 23 24" fill="none" xmlns="http://www.w3.org/2000/svg">
<path d="M2.61273 3.76634H20.3867C21.4092 3.76634 22.1736 4.70726 21.9657 5.71008L21.1022 9.87639C20.9592 10.5664 20.3861 11.084 19.6861 11.1552L4.97806 12.651M2.61273 3.76634L1 1.34326M2.61273 3.76634L4.97806 12.651M19.5463 15.8817H9.17634C7.20784 15.8817 5.48526 14.5561 4.97806 12.651M9.06363 20.7279C9.06363 21.62 8.34158 22.3433 7.4509 22.3433C6.56022 22.3433 5.83818 21.62 5.83818 20.7279C5.83818 19.8357 6.56022 19.1125 7.4509 19.1125C8.34158 19.1125 9.06363 19.8357 9.06363 20.7279ZM19.5463 20.7279C19.5463 21.62 18.8243 22.3433 17.9336 22.3433C17.0429 22.3433 16.3209 21.62 16.3209 20.7279C16.3209 19.8357 17.0429 19.1125 17.9336 19.1125C18.8243 19.1125 19.5463 19.8357 19.5463 20.7279Z" stroke="#342E37" stroke-width="2" stroke-linecap="round"/>
</svg>
