<svg xmlns="http://www.w3.org/2000/svg"  viewBox="0 0 24 24"><path fill="currentColor" d="M17.37 10.3a.6.6 0 01-.2.47l-5.65 5.65c-.13.13-.3.2-.48.2s-.35-.07-.47-.2l-3.76-3.76a.65.65 0 01-.2-.47c-.01-.18.06-.35.2-.48l.95-.94a.65.65 0 01.92-.02l2.37 2.37L15.3 8.9a.65.65 0 01.92-.02l.02.02.95.94c.13.13.2.3.2.48l-.01-.01zM18.92 8c-.7-1.2-1.7-2.22-2.92-2.92-1.2-.7-2.6-1.1-4-1.08-1.4-.01-2.8.37-4 1.08-1.2.7-2.22 1.7-2.92 2.92C4.37 9.2 4 10.6 4 12a7.79 7.79 0 001.07 4A7.97 7.97 0 008 18.92c1.2.7 2.6 1.1 4 1.08a7.79 7.79 0 004-1.07A7.97 7.97 0 0018.92 16c.7-1.2 1.1-2.6 1.08-4 .01-1.4-.37-2.8-1.08-4z"></path></svg>