<svg xmlns="http://www.w3.org/2000/svg"  viewBox="0 0 28.361 28.361"><path fill="currentColor" d="M28.36 19.595c0-.868-.665-1.57-1.5-1.57s-1.492.702-1.492 1.57v3.25l-6.018-6.02a1.487 1.487 0 00-2.106 0 1.49 1.49 0 000 2.109l6 5.987H20.01c-.88.002-1.6.67-1.6 1.5s.7 1.5 1.6 1.5h6.76c.88 0 1.6-.665 1.593-1.5l-.01-.06c.003-.028.01-.058.01-.087v-6.668zM9 16.824l-6.015 6.02v-3.25c0-.868-.672-1.568-1.493-1.57s-1.5.702-1.5 1.57L0 26.264c0 .03.008.06.01.087l-.008.06c.002.825.712 1.5 1.592 1.5h6.762c.88 0 1.6-.666 1.6-1.5s-.7-1.5-1.6-1.5H5.12l6-5.987c.58-.582.58-1.527 0-2.1a1.49 1.49 0 00-2.11 0zm10.36-5.29l6.018-6.017v3.25c0 .865.673 1.565 1.492 1.568.826 0 1.5-.703 1.5-1.568v-6.67c0-.03-.006-.06-.01-.085l.01-.062c-.003-.826-.712-1.5-1.592-1.5h-6.76c-.88 0-1.6.665-1.6 1.5s.7 1.5 1.6 1.492h3.235l-6 5.987a1.49 1.49 0 000 2.105 1.48 1.48 0 002.106.001zM5.12 3.442h3.234c.88-.002 1.6-.67 1.6-1.492s-.72-1.5-1.6-1.5h-6.76c-.88 0-1.6.665-1.592 1.5l.008.062c-.002.026-.01.055-.01.085L.002 8.77c0 .865.666 1.568 1.5 1.568s1.493-.703 1.493-1.568V5.52L9 11.535a1.49 1.49 0 102.11-2.105l-6-5.988z"></path></svg>