<svg width="12" height="12" viewBox="0 0 12 12" fill="none" xmlns="http://www.w3.org/2000/svg">
<path fill-rule="evenodd" clip-rule="evenodd" d="M0.0277251 5.41946C0.00980824 5.46669 0 5.51791 0 5.57143C0 5.6094 0.00289199 5.64622 0.00828958 5.68187C0.00278612 5.78722 0 5.89328 0 6C0 9.31371 2.68629 12 6 12C9.31371 12 12 9.31371 12 6C12 5.89328 11.9972 5.78721 11.9917 5.68186C11.9971 5.64622 12 5.6094 12 5.57143C12 5.51791 11.9902 5.46669 11.9723 5.41946C11.6803 2.37815 9.11786 0 6 0C2.88214 0 0.319723 2.37814 0.0277251 5.41946ZM6 0.857143C5.55785 0.857143 5.02157 1.26345 4.57085 2.24C4.13694 3.18015 3.85714 4.50908 3.85714 6C3.85714 6.1104 3.85868 6.21992 3.86169 6.32846C4.51494 6.39262 5.23762 6.42857 6 6.42857C6.76238 6.42857 7.48506 6.39262 8.13831 6.32846C8.14132 6.21992 8.14286 6.1104 8.14286 6C8.14286 4.50908 7.86306 3.18015 7.42915 2.24C6.97843 1.26345 6.44215 0.857143 6 0.857143ZM8.08134 7.19481C7.43383 7.25372 6.73167 7.28571 6 7.28571C5.26833 7.28571 4.56617 7.25372 3.91866 7.19481C4.02366 8.19612 4.25692 9.07981 4.57085 9.76C5.02157 10.7366 5.55785 11.1429 6 11.1429C6.44215 11.1429 6.97843 10.7366 7.42915 9.76C7.74308 9.07981 7.97634 8.19612 8.08134 7.19481ZM3.00194 6.22196C3.00065 6.14827 3 6.07428 3 6C3 4.41391 3.29584 2.95712 3.7926 1.88081C3.90507 1.63712 4.03234 1.40435 4.17389 1.19078C2.36579 1.87772 1.04553 3.55503 0.875689 5.56015C0.909276 5.59335 0.970293 5.64036 1.07167 5.69567C1.30428 5.82258 1.66922 5.95046 2.15677 6.06297C2.41264 6.12202 2.6958 6.17539 3.00194 6.22196ZM0.887136 6.55867C1.18645 6.69069 1.55359 6.80344 1.96404 6.89816C2.29098 6.97361 2.65473 7.03969 3.04791 7.09492C3.15035 8.25062 3.41273 9.29615 3.7926 10.1192C3.90507 10.3629 4.03234 10.5956 4.17389 10.8092C2.40162 10.1359 1.09804 8.51105 0.887136 6.55867ZM11.1243 5.56015C10.9545 3.55503 9.63421 1.87772 7.82611 1.19078C7.96766 1.40435 8.09493 1.63712 8.2074 1.88081C8.70416 2.95712 9 4.41391 9 6C9 6.07428 8.99935 6.14827 8.99806 6.22196C9.3042 6.17539 9.58736 6.12202 9.84323 6.06297C10.3308 5.95046 10.6957 5.82258 10.9283 5.69567C11.0297 5.64036 11.0907 5.59335 11.1243 5.56015ZM11.1129 6.55867C10.8135 6.69069 10.4464 6.80344 10.036 6.89816C9.70902 6.97361 9.34527 7.03969 8.95209 7.09492C8.84965 8.25062 8.58727 9.29615 8.2074 10.1192C8.09493 10.3629 7.96766 10.5956 7.82611 10.8092C9.59838 10.1359 10.902 8.51106 11.1129 6.55867Z" fill="white"/>
</svg>
