<svg width="25" height="23" viewBox="0 0 25 23" fill="none" xmlns="http://www.w3.org/2000/svg">
<path d="M14.111 2.99753L13.4129 2.28153V2.28153L14.111 2.99753ZM22.3033 10.9851L21.6052 10.2691C21.5956 10.2784 21.5862 10.2879 21.577 10.2977L22.3033 10.9851ZM12.5 21.3433L11.7737 22.0306C11.9626 22.2302 12.2252 22.3433 12.5 22.3433C12.7748 22.3433 13.0374 22.2302 13.2263 22.0306L12.5 21.3433ZM2.69669 2.99753L3.39479 3.71353L2.69669 2.99753ZM2.69669 10.9851L3.42298 10.2977C3.41378 10.2879 3.40438 10.2784 3.39479 10.2691L2.69669 10.9851ZM12.5 4.56821L11.8019 5.28422C12.1903 5.66288 12.8097 5.66288 13.1981 5.28422L12.5 4.56821ZM10.889 2.99753L10.1909 3.71353L10.1909 3.71353L10.889 2.99753ZM14.8091 3.71353C16.6829 1.8865 19.7313 1.8865 21.6052 3.71353L23.0014 2.28153C20.3508 -0.302828 16.0635 -0.302828 13.4129 2.28153L14.8091 3.71353ZM21.6052 3.71353C23.4649 5.52676 23.4649 8.45583 21.6052 10.2691L23.0014 11.7011C25.6662 9.10289 25.6662 4.8797 23.0014 2.28153L21.6052 3.71353ZM21.577 10.2977L11.7737 20.6559L13.2263 22.0306L23.0296 11.6724L21.577 10.2977ZM1.99859 2.28153C-0.666197 4.8797 -0.666197 9.10289 1.99859 11.7011L3.39479 10.2691C1.53507 8.45583 1.53507 5.52676 3.39479 3.71353L1.99859 2.28153ZM1.9704 11.6724L11.7737 22.0306L13.2263 20.6559L3.42298 10.2977L1.9704 11.6724ZM13.4129 2.28153L11.8019 3.85221L13.1981 5.28422L14.8091 3.71353L13.4129 2.28153ZM11.5871 2.28153C8.93651 -0.302826 4.64922 -0.302827 1.99859 2.28153L3.39479 3.71353C5.26867 1.88651 8.31706 1.88651 10.1909 3.71353L11.5871 2.28153ZM13.1981 3.85221L11.5871 2.28153L10.1909 3.71353L11.8019 5.28422L13.1981 3.85221Z" fill="#342E37"/>
</svg>
