<svg xmlns="http://www.w3.org/2000/svg" id="i-key" viewBox="0 0 32 32"><g fill="currentColor"><path d="M16 31a1 1 0 01-.6-.2l-4-3a1 1 0 01-.4-.8v-9.53a9 9 0 1110 0V19a1 1 0 01-.29.71L19.4 21l1.3 1.3a1 1 0 010 1.42L19.4 25l1.3 1.3a1 1 0 01-.11 1.51l-4 3a1 1 0 01-.6.2zm-3-4.5l3 2.25 2.48-1.86-1.2-1.18a1 1 0 010-1.42l1.3-1.3-1.3-1.3a1 1 0 010-1.42l1.7-1.7V16.9a1 1 0 01.5-.86 7 7 0 10-7 0 1 1 0 01.5.86zm7-7.5z"></path><circle cx="16" cy="8" r="1"></circle><path d="M16 10a2 2 0 112-2 2 2 0 01-2 2zm0-2z"></path></g></svg>