<svg xmlns="http://www.w3.org/2000/svg"  viewBox="0 0 24 24"><path fill="currentColor" d="M17.33 13.67a.317.317 0 00-.3-.34h-.7a.314.314 0 00-.33.3V17c0 .92-.75 1.67-1.67 1.67H5.67C4.75 18.67 4 17.92 4 17V8.34c0-.92.75-1.67 1.67-1.67H13c.18.01.32-.13.33-.3v-.7a.314.314 0 00-.3-.33H5.67a2.9 2.9 0 00-2.12.88 2.9 2.9 0 00-.88 2.12V17a2.9 2.9 0 00.88 2.12 2.9 2.9 0 002.12.88h8.66c1.66 0 3-1.34 3-3v-3.33zm4-9a.683.683 0 00-.67-.67h-5.33c-.36 0-.66.3-.67.65 0 .18.07.35.2.48L16.7 7l-6.8 6.76c-.13.13-.14.33-.01.47l1.2 1.2c.13.13.33.14.47.01l6.8-6.8 1.83 1.83c.27.25.7.24.95-.03.1-.12.18-.28.18-.44V4.67z"></path></svg>