<svg width="183" height="32" viewBox="0 0 183 32" fill="none" xmlns="http://www.w3.org/2000/svg">
<path d="M19.0941 9.96088L13.0991 3.84078C12.3784 3.09148 11.5127 2.5037 10.5572 2.11491C8.70817 1.34809 6.63902 1.34809 4.79 2.11491C3.83746 2.5098 2.97213 3.09562 2.24517 3.83776C1.5182 4.57989 0.944353 5.46328 0.557539 6.4357C0.190812 7.37634 0.00163826 8.37931 0 9.39172C0.0130947 10.4051 0.21661 11.4065 0.5995 12.3416C0.983622 13.3222 1.5611 14.2117 2.29608 14.9549L3.02148 15.6893C3.59777 15.0941 4.07019 14.4028 4.41832 13.6452C4.74205 12.6905 4.59217 11.0625 4.04662 10.4627C3.5049 9.86143 3.03037 9.2005 2.6318 8.49208C2.24542 7.82195 1.99658 7.07858 1.90041 6.3072C1.85804 5.93099 1.90511 5.54987 2.03765 5.19618C2.17018 4.84248 2.38427 4.52662 2.66178 4.27532C2.91256 3.99199 3.22478 3.77248 3.5735 3.63433C3.92222 3.49618 4.29776 3.44324 4.67011 3.47972C5.42925 3.56735 6.1622 3.81538 6.82231 4.20801C7.51821 4.6118 8.16599 5.09646 8.7527 5.65235C9.3482 6.20724 9.80382 6.64787 10.1196 6.97427L14.9575 11.9193L16.9898 13.9879C16.9898 13.9879 17.8351 14.8019 19.7535 14.1042C20.517 13.7782 21.1857 13.2577 21.6959 12.5925L19.142 9.97926L19.0941 9.96088Z" fill="#FF3300"/>
<path d="M9.27985 21.9788L15.5476 27.6907C16.3049 28.3858 17.209 28.9337 18.2051 29.3015C20.1404 30.0175 22.3057 30.0175 24.241 29.3015C25.2379 28.9351 26.1423 28.387 26.8985 27.6907C27.6642 27.0018 28.264 26.175 28.6597 25.2632C29.0491 24.3888 29.2471 23.4536 29.2426 22.51C29.2297 21.5622 29.0169 20.6256 28.6159 19.7511C28.2118 18.8374 27.6059 18.0091 26.8358 17.3178L26.0837 16.6323C25.4789 17.1861 24.9848 17.8317 24.6233 18.5401C24.2786 19.4255 24.4415 20.9449 25.0119 21.5104C25.5797 22.0705 26.076 22.6875 26.4911 23.3496C26.8932 23.9754 27.1512 24.6692 27.2495 25.3888C27.293 25.7394 27.244 26.0943 27.1066 26.4242C26.9693 26.754 26.7475 27.0492 26.4597 27.2852C26.1969 27.5486 25.8702 27.7524 25.5057 27.8803C25.1411 28.0083 24.7488 28.0568 24.36 28.022C23.564 27.9458 22.7948 27.716 22.1037 27.348C21.3785 26.9678 20.7016 26.5157 20.0854 26C19.4587 25.4802 18.9886 25.0632 18.6564 24.7605L13.5983 20.1509L11.53 18.2146C11.53 18.2146 10.6399 17.4606 8.63427 18.1117C7.83707 18.4148 7.13805 18.8985 6.60352 19.5169L9.27985 21.9559V21.9788Z" fill="#FF3300"/>
<path d="M8.42108 10.8291L2.30098 17.0908C1.55373 17.8452 0.966262 18.749 0.575116 19.7458C-0.191705 21.677 -0.191705 23.8382 0.575116 25.7695C0.96753 26.7674 1.55479 27.673 2.30098 28.4307C3.04084 29.1936 3.92622 29.7925 4.90202 30.1903C6.79514 30.9793 8.9148 30.9793 10.8079 30.1903C11.7869 29.7866 12.6744 29.1813 13.4151 28.4119L14.1495 27.6605C13.5543 27.0586 12.863 26.5652 12.1054 26.2016C11.1568 25.8634 9.52882 26.02 8.92293 26.5898C8.32281 27.1571 7.66169 27.6528 6.95226 28.0675C6.28212 28.4711 5.53876 28.731 4.76738 28.8314C4.39129 28.8711 4.01139 28.8185 3.65912 28.678C3.30685 28.5375 2.99234 28.3132 2.74163 28.0237C2.4594 27.7612 2.24105 27.4348 2.10397 27.0706C1.9669 26.7064 1.91491 26.3145 1.95214 25.9261C2.03466 25.1329 2.28081 24.3667 2.67431 23.6781C3.07809 22.9512 3.56277 22.2746 4.11865 21.6618C4.67558 21.0357 5.11622 20.566 5.44671 20.2342L10.3856 15.181L12.4603 13.0582C12.4603 13.0582 13.2682 12.1753 12.5705 10.1716C12.2462 9.3732 11.7254 8.67428 11.0588 8.14282L8.45168 10.8103L8.42108 10.8291Z" fill="#FF3300"/>
<path d="M20.8216 20.6868L26.9415 14.6752C27.6882 13.9504 28.2756 13.0829 28.6674 12.1263C29.4345 10.2701 29.4345 8.19326 28.6674 6.33711C28.2712 5.38339 27.6849 4.51714 26.9429 3.7893C26.2009 3.06146 25.3181 2.48673 24.3467 2.09894C23.4078 1.72544 22.4037 1.53554 21.3907 1.53987C20.3793 1.54331 19.378 1.73715 18.4409 2.11094C17.46 2.49836 16.5706 3.07947 15.8277 3.81825L15.0933 4.53965C15.6884 5.11753 16.3797 5.59123 17.1373 5.94032C18.0921 6.27096 19.72 6.11466 20.3197 5.56761C20.921 5.02438 21.582 4.54855 22.2904 4.14888C22.9608 3.76323 23.7042 3.51575 24.4752 3.4215C24.8508 3.37929 25.2313 3.42599 25.5848 3.55777C25.9383 3.68955 26.2545 3.90253 26.507 4.17893C26.7903 4.4304 27.0099 4.7435 27.148 5.09318C27.2862 5.44286 27.3391 5.81946 27.3026 6.19283C27.216 6.95618 26.9679 7.69332 26.5743 8.35699C26.169 9.05384 25.6845 9.70327 25.13 10.2927C24.5711 10.8899 24.1304 11.3468 23.8081 11.6634L18.8815 16.4787L16.813 18.5106C16.813 18.5106 15.999 19.3642 16.6967 21.2879C17.0227 22.0535 17.5432 22.7241 18.2083 23.2357L20.8216 20.6687V20.6868Z" fill="#FF3300"/>
<path d="M56.5744 27.9937C53.3666 27.9937 50.2902 26.7194 48.0219 24.4512C45.7537 22.1829 44.4794 19.1065 44.4794 15.8987C44.4794 12.691 45.7537 9.61453 48.0219 7.34628C50.2902 5.07803 53.3666 3.80376 56.5744 3.80376C59.6271 3.80376 62.5333 5.02486 65.293 7.46706L68.1382 4.95771C64.5237 1.64853 60.6691 -0.00406283 56.5744 7.50046e-06C52.3586 7.50046e-06 48.3155 1.67473 45.3344 4.65575C42.3534 7.63676 40.6787 11.6799 40.6787 15.8957C40.6787 20.1115 42.3534 24.1546 45.3344 27.1356C48.3155 30.1166 52.3586 31.7913 56.5744 31.7913C60.6447 31.7913 64.4993 30.1449 68.1382 26.852L65.293 24.3427C62.5333 26.7849 59.6271 28.006 56.5744 28.006" fill="#342E37"/>
<path d="M109.306 10.8557C109.312 11.7412 109.142 12.6192 108.807 13.4389C108.472 14.2587 107.978 15.0041 107.354 15.6323C106.73 16.2605 105.988 16.759 105.17 17.0992C104.353 17.4394 103.476 17.6145 102.59 17.6145H98.7192V4.13963H102.59C104.371 4.13963 106.08 4.8472 107.339 6.1067C108.599 7.3662 109.306 9.07447 109.306 10.8557ZM109.996 18.2983C111.963 16.3243 113.067 13.6513 113.067 10.8648C113.067 8.07834 111.963 5.40541 109.996 3.43141C108.291 1.73884 106.069 0.664404 103.683 0.378662H94.9521V31.4617H98.707V21.4121H102.578H102.511L108.934 31.419H113.47L106.553 20.771C107.424 20.5431 108.571 19.729 109.996 18.3288" fill="#342E37"/>
<path d="M77.8846 17.4872L80.7114 9.50023L83.5441 17.4872H77.8846ZM79.9823 0.614993L68.8604 31.7256H72.7748L76.5339 21.2026H84.9008L88.5463 31.7072H92.4428L81.4943 0.59668L79.9823 0.614993Z" fill="#342E37"/>
<path d="M137.722 0.59668H133.808L125.576 23.2492L117.111 0.59668H113.196L124.67 31.7256H126.483L137.722 0.59668Z" fill="#342E37"/>
<path d="M139.609 0.59668V31.7256H156.588V27.9644H143.449V18.057H156.588V14.2714H143.449V4.35783H156.588V0.59668H139.609Z" fill="#342E37"/>
<path d="M175.453 31.7256V27.9644H164.898V0.59668H161.304V31.7256H175.453Z" fill="#342E37"/>
<path d="M183 0.59668H179.227V31.7256H183V0.59668Z" fill="#342E37"/>
</svg>
