<svg xmlns="http://www.w3.org/2000/svg" viewBox="0 0 230.9 146" xml:space="preserve" preserveAspectRatio="xMidYMid meet"><path id="logo" fill="currentColor" d="M3.465 2.62c-6.1 5.15-6.55 3.35 18.9 72.2 26.05 70.3 24.95 67.65 28.95 69.75 7.1 3.65 16.05-1.6 16.05-9.35 0-5-47.2-129.65-50.1-132.4-3.95-3.7-9.55-3.75-13.8-.2zM213.465 2.82c-2.9 2.75-50.1 127.4-50.1 132.4 0 10.65 15.55 14.55 20.35 5.1 5.7-11.25 47.8-128.65 47.2-131.7-1.45-7.95-11.6-11.3-17.45-5.8zM104.215 50.07c-37.2 9.45-49.85 55.55-22.4 81.85 41.9 40.25 105.6-13.6 73.3-61.95-10.4-15.6-33-24.45-50.9-19.9zm22.95 23.6c19.65 9.8 19.55 37.2-.15 47.65-5.85 3.1-17.45 3.1-23.3 0-25-13.25-16.45-50.25 11.65-50.25 5.1 0 7.8.6 11.8 2.6z"/></svg>