<svg xmlns="http://www.w3.org/2000/svg" id="i-logout" viewBox="0 0 24 24"><path fill="currentColor" d="M10.48 17.65a.33.33 0 010-.14c0-.04-.03-.08-.07-.1a.156.156 0 01-.08-.06.127.127 0 00-.12 0h-3.4c-.92 0-1.67-.75-1.67-1.67V8.34c0-.92.75-1.67 1.67-1.67h3.33c.08 0 .15-.02.2-.07.05-.05.1-.12.1-.2s.01-.16 0-.24a1.31 1.31 0 000-.28v-.2a.347.347 0 00-.33-.33h-3.3a2.84 2.84 0 00-2.12.88 2.9 2.9 0 00-.88 2.12v7.33a2.9 2.9 0 00.88 2.12 2.9 2.9 0 002.12.88h3.33c.08 0 .15-.02.2-.07.05-.05.1-.12.1-.2s.01-.16 0-.24a1.31 1.31 0 000-.28v-.2l.02-.02zM20.14 12c0-.18-.07-.35-.2-.47l-5.66-5.66a.676.676 0 00-.95.03.72.72 0 00-.18.44v3H8.48c-.37.01-.66.3-.67.67v4c.01.37.3.66.67.67h4.66v3c0 .36.3.66.65.67.18 0 .35-.07.48-.2l5.7-5.68c.13-.12.2-.3.2-.47h-.04z"></path></svg>