<svg xmlns="http://www.w3.org/2000/svg"  viewBox="0 0 24 24"><path fill="currentColor" d="M20.3 10.32l-5.18 3.6-1 .68c-.32.2-.65.36-1 .5-.36.16-.75.25-1.15.26-.4-.01-.8-.1-1.15-.26-.35-.14-.68-.3-1-.5l-1-.68-5.17-3.6c-.36-.26-.68-.56-.97-.9v8.27c0 .92.75 1.67 1.67 1.67h15.32c.92 0 1.67-.75 1.67-1.67V9.42a5.95 5.95 0 01-1.04.9zm1-4c-.01-.92-.75-1.66-1.67-1.67H4.34c-.47-.03-.93.17-1.23.54a2.06 2.06 0 00-.43 1.35c.02.54.2 1.06.56 1.48.34.46.75.87 1.22 1.2L6.6 10.7l2.73 1.9.44.32.56.4.54.34c.2.1.4.2.6.28.17.06.35.1.53.1s.35-.03.52-.1c.2-.07.4-.17.6-.28l.54-.34.56-.4.44-.32 4.87-3.38c.5-.35.93-.78 1.27-1.28.33-.46.5-1 .5-1.57v-.04z"></path></svg>