<?xml version="1.0" encoding="iso-8859-1"?>
<!-- Generator: Adobe Illustrator 19.0.0, SVG Export Plug-In . SVG Version: 6.00 Build 0)  -->
<svg version="1.1" id="Capa_1" xmlns="http://www.w3.org/2000/svg" xmlns:xlink="http://www.w3.org/1999/xlink" x="0px" y="0px"
	 viewBox="0 0 512 512" style="enable-background:new 0 0 512 512;" xml:space="preserve">
<g>
	<g>
		<path d="M433.829,177.829C433.829,79.774,354.055,0,256,0S78.171,79.774,78.171,177.829c0,57.968,27.885,109.542,70.941,142.027
			L83.603,459.056l68.286,0.894L196.101,512l59.898-127.279L315.897,512l44.213-52.05l68.287-0.894l-65.508-139.201
			C405.944,287.372,433.829,235.798,433.829,177.829z M188.8,457.069l-22.879-26.935l-35.336-0.462l44.106-93.72
			c19.039,9.83,40.069,16.317,62.313,18.69L188.8,457.069z M108.168,177.829c0-81.515,66.316-147.832,147.832-147.832
			s147.832,66.317,147.832,147.832S337.515,325.662,256,325.662S108.168,259.345,108.168,177.829z M381.415,429.672l-35.336,0.462
			L323.2,457.07l-48.202-102.427c22.243-2.374,43.274-8.86,62.313-18.69L381.415,429.672z"/>
	</g>
</g>
<g>
	<g>
		<path d="M256,61.494c-64.147,0-116.335,52.188-116.335,116.335S191.852,294.164,256,294.164
			c64.147,0,116.335-52.188,116.335-116.335S320.147,61.494,256,61.494z M256,264.167c-47.607,0-86.338-38.731-86.338-86.338
			c0-47.607,38.731-86.338,86.338-86.338s86.338,38.731,86.338,86.338C342.338,225.436,303.607,264.167,256,264.167z"/>
	</g>
</g>
<g>
</g>
<g>
</g>
<g>
</g>
<g>
</g>
<g>
</g>
<g>
</g>
<g>
</g>
<g>
</g>
<g>
</g>
<g>
</g>
<g>
</g>
<g>
</g>
<g>
</g>
<g>
</g>
<g>
</g>
</svg>
