<svg xmlns="http://www.w3.org/2000/svg" id="i-newsletter" viewBox="0 0 24 24"><path fill="currentColor" d="M12 12.67H8v-4h4v4zm1.33 2.67H6.67v1.33h6.66v-1.33zm-6.66-8V14h6.66V7.34H6.67zm13.33 8h-5.33v1.33H20v-1.33zm-5.33-2.67V14H20v-1.33h-5.33zm0-2.67v1.33H20V10h-5.33zm0-2.67v1.34H20V7.34h-5.33v-.01zM4 17.33c0 .36-.3.66-.65.67-.18 0-.35-.07-.48-.2a.65.65 0 01-.2-.47v-10H4v10zm17.32 0c-.01.37-.3.66-.67.67H5.22c.07-.22.1-.44.1-.67V6h16v11.33h-.01zm1.34-12.66H4V6H1.34v11.33a1.94 1.94 0 00.58 1.42 1.94 1.94 0 001.42.58h17.32c1.1 0 2-.9 2-2V4.67z"></path></svg>