<svg fill="currentColor" viewBox="0 0 15 15" fill="none" xmlns="http://www.w3.org/2000/svg">
<path fill-rule="evenodd" clip-rule="evenodd" d="M10.9219 13.9098C11.4754 13.9427 11.9347 13.796 12.3109 13.4197L13.9009 11.8292C13.9108 11.8194 13.9136 11.8103 13.9142 11.8049L11.6418 9.53181C11.6364 9.53244 11.6273 9.53528 11.6175 9.5451L10.0275 11.1355C9.92546 11.2376 9.78698 11.2948 9.64267 11.2946L9.64372 10.7516C9.64267 11.2946 9.64108 11.2946 9.64108 11.2946L9.63947 11.2945L9.63622 11.2945L9.62955 11.2944L9.61551 11.2939C9.60585 11.2934 9.59557 11.2927 9.58466 11.2917C9.56285 11.2897 9.53854 11.2865 9.51158 11.2817C9.45774 11.2722 9.39314 11.2563 9.31652 11.2308C9.16391 11.1802 8.95965 11.0901 8.69196 10.9311C8.1586 10.6143 7.34926 10.0091 6.16458 8.84464C4.97753 7.67787 4.36804 6.8644 4.05341 6.31925C3.89538 6.04545 3.80823 5.83332 3.76105 5.67294C3.73738 5.59248 3.72359 5.52441 3.71614 5.46773C3.71241 5.43938 3.71027 5.41391 3.70928 5.39121C3.70878 5.37987 3.70857 5.36923 3.70859 5.35929C3.70859 5.35431 3.70866 5.34952 3.70877 5.3449L3.70898 5.3381L3.70911 5.3348L3.70918 5.33318C3.70918 5.33318 3.70926 5.33157 4.25139 5.3578L3.70926 5.33157C3.71578 5.19681 3.77222 5.0693 3.8676 4.9739L5.45759 3.38346C5.46741 3.37363 5.47026 3.36454 5.47088 3.35919L3.1984 1.08607C3.19305 1.08669 3.18396 1.08954 3.17414 1.09936L1.58413 2.68982C1.2066 3.06746 1.05879 3.52629 1.08934 4.07648C1.12098 4.64633 1.34613 5.3079 1.72516 6.02294C2.4826 7.45185 3.77163 8.94219 4.90634 10.0772C6.034 11.2052 7.52906 12.4998 8.96472 13.2642C9.68327 13.6468 10.3488 13.8756 10.9219 13.9098ZM4.85965 5.51715L6.22517 4.15125C6.64198 3.73432 6.68492 3.03799 6.24394 2.59688L3.96049 0.312792C3.51951 -0.128319 2.82338 -0.0853593 2.40656 0.331569L0.816553 1.92203C0.187694 2.55107 -0.0394196 3.32789 0.00548983 4.13669C0.049308 4.92583 0.350001 5.7466 0.766116 6.5316C1.59897 8.10278 2.97744 9.68336 4.13876 10.845C5.2934 12 6.87803 13.3833 8.45468 14.2227C9.2423 14.642 10.0661 14.9466 10.8574 14.9937C11.6683 15.042 12.4483 14.8178 13.0785 14.1875L14.6685 12.597C15.0853 12.1801 15.1283 11.4837 14.6873 11.0426L12.4038 8.75853C11.9629 8.31742 11.2667 8.36038 10.8499 8.77731L9.49528 10.1323C9.42929 10.1007 9.34672 10.0572 9.24622 9.99751C8.81336 9.74039 8.07334 9.19848 6.92541 8.07015C5.77984 6.94415 5.24252 6.20782 4.99351 5.77636C4.93244 5.67055 4.8896 5.5846 4.85965 5.51715Z" fill="currentColor"/>
</svg>
