<svg xmlns="http://www.w3.org/2000/svg"  viewBox="0 0 24 24"><path fill="currentColor" d="M19.33 16.26a.81.81 0 000-.22c-.2-.25-.48-.44-.8-.55l-.56-.3-.66-.36-.56-.32-.26-.18c-.12-.08-.24-.16-.37-.22a.63.63 0 00-.33-.09.84.84 0 00-.52.3c-.2.2-.4.42-.57.65s-.35.45-.55.65c-.12.16-.3.26-.48.3-.08 0-.16-.02-.23-.05l-.2-.1-.24-.16-.2-.12a11.18 11.18 0 01-2.45-1.81 11.18 11.18 0 01-1.81-2.45L8.4 11l-.15-.25-.1-.2a.593.593 0 01-.05-.23c.04-.2.14-.36.3-.48.2-.2.42-.38.65-.55s.44-.36.64-.56a.84.84 0 00.3-.52.63.63 0 00-.07-.3c-.07-.13-.14-.25-.23-.37l-.18-.26-.32-.55-.37-.66-.3-.57c-.1-.3-.28-.58-.52-.8a.81.81 0 00-.22 0c-.25.01-.5.04-.73.1-.26.04-.5.1-.75.2a2.8 2.8 0 00-1.1 1.26c-.34.6-.52 1.26-.53 1.94-.01.18-.01.37 0 .55a4.29 4.29 0 00.13.6l.2.5.2.58.2.5a9.19 9.19 0 00.86 1.82c.64 1 1.4 1.92 2.25 2.75.83.85 1.75 1.6 2.75 2.25a9.19 9.19 0 001.82.86l.5.2.58.2.5.15a4.29 4.29 0 00.6.13c.18.01.37.01.55 0 .68-.01 1.35-.2 1.94-.53.52-.22.95-.58 1.26-1.05a4.41 4.41 0 00.23-.7c.06-.24.1-.48.1-.73v-.02z"></path></svg>