<svg xmlns="http://www.w3.org/2000/svg" id="i-remove-account" viewBox="0 0 24 24"><path fill="currentColor" d="M11.52 10.83c.76-.74 1.2-1.77 1.17-2.83.02-1.06-.4-2.1-1.17-2.83A3.805 3.805 0 008.7 4a3.82 3.82 0 00-2.83 1.18A3.83 3.83 0 004.7 8c-.02 1.06.4 2.1 1.17 2.83A3.89 3.89 0 008.7 12c1.06.01 2.08-.4 2.82-1.17zm11 1.9a.34.34 0 00.09-.24c0-.1-.03-.17-.1-.23l-1.44-1.42a.326.326 0 00-.23-.1.34.34 0 00-.24.09l-2.63 2.6-2.6-2.6a.34.34 0 00-.24-.09c-.1 0-.17.03-.23.1l-1.42 1.42c-.06.06-.1.14-.1.23a.34.34 0 00.09.24l2.6 2.6-2.6 2.6a.34.34 0 00-.09.24c0 .1.03.17.1.23l1.48 1.4c.06.06.14.1.23.1a.34.34 0 00.24-.09l2.53-2.6 2.6 2.6a.34.34 0 00.24.09c.1 0 .17-.03.23-.1l1.42-1.42c.06-.06.1-.14.1-.23a.34.34 0 00-.09-.24l-2.6-2.6 2.65-2.6zm-9.66.7a1.26 1.26 0 01-.39-.95c0-.2.04-.4.14-.58.1-.2.22-.36.37-.52a2.88 2.88 0 00-.59-.06.64.64 0 00-.41.18 5.33 5.33 0 01-3.32 1.27 5.33 5.33 0 01-3.32-1.27c-.1-.1-.22-.17-.36-.2-.4 0-.8.07-1.16.2a2.85 2.85 0 00-.89.56c-.26.25-.48.53-.65.84-.18.32-.33.65-.45 1a8.88 8.88 0 00-.28 1.13 10.58 10.58 0 00-.15 1.13v1.08c-.05.75.23 1.47.76 2 .55.5 1.26.75 2 .72h9.1a3.53 3.53 0 00.46 0l-.86-.86c-.5-.52-.5-1.36 0-1.88l1.88-1.88-1.88-1.93z"></path></svg>