<svg xmlns="http://www.w3.org/2000/svg"  viewBox="0 0 24 24"><path fill="currentColor" d="M15.32 17.66a.34.34 0 00-.07-.22l-1.67-2a.281.281 0 00-.26-.1h-6v-4h2a.69.69 0 00.67-.66.62.62 0 00-.16-.43l-3.33-4a.68.68 0 00-.96-.04l-.04.04-3.33 4a.62.62 0 00-.16.43c.01.37.3.66.67.67h2v6.37c-.01.04-.01.08 0 .12l.08.07c.02.03.05.06.1.07L5 18h10c.18-.01.32-.15.33-.33v-.01zM22 13.33a.683.683 0 00-.67-.67h-2V6.3c.01-.04.01-.08 0-.12l-.1-.08a.195.195 0 00-.1-.1H9c-.18.01-.32.15-.33.33 0 .08.02.15.07.2l1.67 2c.06.08.16.12.26.12h6v4h-2c-.37.01-.66.3-.67.67a.62.62 0 00.16.43l3.33 4c.24.28.65.3.93.07.02-.02.05-.04.07-.07l3.33-4c.1-.1.18-.27.18-.43z"></path></svg>