<svg  viewBox="0 0 12 12" fill="currentColor">
<path d="M3.85714 5.14286C3.85714 4.90616 4.04902 4.71429 4.28571 4.71429H7.71428C7.95098 4.71429 8.14286 4.90616 8.14286 5.14286C8.14286 5.37955 7.95098 5.57143 7.71428 5.57143H4.28571C4.04902 5.57143 3.85714 5.37955 3.85714 5.14286Z" fill="currentColor"/>
<path d="M4.28571 6.85714C4.04902 6.85714 3.85714 7.04902 3.85714 7.28571C3.85714 7.52241 4.04902 7.71429 4.28571 7.71429H6C6.23669 7.71429 6.42857 7.52241 6.42857 7.28571C6.42857 7.04902 6.23669 6.85714 6 6.85714H4.28571Z" fill="currentColor"/>
<path fill-rule="evenodd" clip-rule="evenodd" d="M6 0C2.68834 0 0 2.67164 0 5.97184C0 9.26459 2.66308 12 5.98215 12H11.5714C11.7114 12 11.8426 11.9316 11.9228 11.8169C12.0029 11.7021 12.022 11.5554 11.9738 11.424L11.1185 9.08938C11.6776 8.1818 12 7.11378 12 5.97183C12 2.67164 9.31166 0 6 0ZM0.857143 5.97184C0.857143 3.14911 3.15763 0.857143 6 0.857143C8.84237 0.857143 11.1429 3.14911 11.1429 5.97183C11.1429 7.01769 10.8277 7.98916 10.2865 8.79895C10.2105 8.91274 10.1934 9.056 10.2404 9.18451L10.958 11.1429H5.98215C3.14719 11.1429 0.857143 8.802 0.857143 5.97184Z" fill="currentColor"/>
</svg>
