<svg width="22" height="24" viewBox="0 0 22 24" fill="none" xmlns="http://www.w3.org/2000/svg">
<path d="M20.1302 20.308L20.646 21.1647L20.1302 20.308ZM1.86983 20.308L2.38564 19.4513L1.86983 20.308ZM1.00812 18.537L0.0120133 18.4488L1.00812 18.537ZM20.9919 18.537L19.9958 18.6252L19.9958 18.6252L20.9919 18.537ZM19.9886 15.3939L20.8789 14.9385V14.9385L19.9886 15.3939ZM2.01137 15.3939L2.90169 15.8492L2.01137 15.3939ZM15 6.18942C15 8.28436 13.2388 10.0356 11 10.0356V12.0356C14.284 12.0356 17 9.44739 17 6.18942H15ZM11 10.0356C8.76117 10.0356 7 8.28436 7 6.18942H5C5 9.44739 7.71598 12.0356 11 12.0356V10.0356ZM7 6.18942C7 4.09447 8.76117 2.34326 11 2.34326V0.343262C7.71598 0.343262 5 2.93144 5 6.18942H7ZM11 2.34326C13.2388 2.34326 15 4.09447 15 6.18942H17C17 2.93144 14.284 0.343262 11 0.343262V2.34326ZM19.6144 19.4513C18.4514 20.1515 15.7772 21.3433 11 21.3433V23.3433C16.1286 23.3433 19.1615 22.0585 20.646 21.1647L19.6144 19.4513ZM11 21.3433C6.22285 21.3433 3.54856 20.1515 2.38564 19.4513L1.35401 21.1647C2.83853 22.0585 5.87137 23.3433 11 23.3433V21.3433ZM0.0120133 18.4488C-0.0808945 19.498 0.371521 20.5732 1.35401 21.1647L2.38564 19.4513C2.12931 19.297 1.97114 18.9988 2.00422 18.6252L0.0120133 18.4488ZM19.9958 18.6252C20.0289 18.9988 19.8707 19.297 19.6144 19.4513L20.646 21.1647C21.6285 20.5732 22.0809 19.498 21.988 18.4488L19.9958 18.6252ZM19.0983 15.8492C19.4941 16.623 19.9094 17.6502 19.9958 18.6252L21.988 18.4488C21.8682 17.0964 21.3193 15.7996 20.8789 14.9385L19.0983 15.8492ZM2.00422 18.6252C2.09056 17.6502 2.50594 16.623 2.90169 15.8492L1.12105 14.9385C0.680663 15.7996 0.131774 17.0964 0.0120133 18.4488L2.00422 18.6252ZM17.9966 13.2663H4.00338V15.2663H17.9966V13.2663ZM2.90169 15.8492C3.07038 15.5194 3.46969 15.2663 4.00338 15.2663V13.2663C2.86668 13.2663 1.69423 13.8178 1.12105 14.9385L2.90169 15.8492ZM20.8789 14.9385C20.3058 13.8178 19.1333 13.2663 17.9966 13.2663V15.2663C18.5303 15.2663 18.9296 15.5194 19.0983 15.8492L20.8789 14.9385Z" fill="#342E37"/>
</svg>
