<svg xmlns="http://www.w3.org/2000/svg"  viewBox="0 0 24 24"><path fill="currentColor" d="M14 10.32a.347.347 0 00-.33-.33h-2.34V7.66a.347.347 0 00-.33-.33h-.67c-.18.01-.33.15-.33.33V10H7.67c-.18.01-.33.15-.33.33V11c.01.18.15.32.33.33H10v2.33c.01.18.15.32.33.33H11c.18-.01.32-.15.33-.33v-2.33h2.33A.35.35 0 0014 11v-.67zm1.33.33a4.68 4.68 0 01-4.66 4.66c-1.23.03-2.43-.44-3.3-1.32A4.49 4.49 0 016 10.66a4.5 4.5 0 011.37-3.3 4.5 4.5 0 013.3-1.37A4.49 4.49 0 0114 7.36a4.5 4.5 0 011.37 3.3l-.04-.01zm5.33 8.66c.01-.35-.14-.7-.4-.94L16.7 14.8c.85-1.2 1.3-2.66 1.3-4.14 0-.98-.2-1.95-.58-2.85a7.17 7.17 0 00-3.9-3.9 7.32 7.32 0 00-5.7 0 7.17 7.17 0 00-3.9 3.9 7.32 7.32 0 000 5.7 7.17 7.17 0 003.9 3.9c.9.4 1.87.58 2.85.58 1.48.01 2.93-.44 4.15-1.3l3.57 3.56c.24.26.58.4.94.4.73 0 1.33-.6 1.33-1.33v-.02z"></path></svg>